<svg width="14" height="14" viewBox="0 0 14 14" fill="none" xmlns="http://www.w3.org/2000/svg">
<path d="M9.50835 5.25L4.08335 2.04167C3.50002 1.69167 2.74169 1.69167 2.15835 2.04167C1.51669 2.33333 1.16669 3.03333 1.16669 3.73333V10.2667C1.16669 10.9667 1.51669 11.6667 2.15835 12.0167C2.74169 12.3667 3.50002 12.3667 4.08335 12.0167L9.50835 8.75C10.4417 8.16667 10.7334 6.94167 10.15 5.95C10.0334 5.65833 9.80002 5.425 9.50835 5.25ZM12.25 1.75C11.9 1.75 11.6667 1.98333 11.6667 2.33333V11.6667C11.6667 12.0167 11.9 12.25 12.25 12.25C12.6 12.25 12.8334 12.0167 12.8334 11.6667V2.33333C12.8334 1.98333 12.6 1.75 12.25 1.75Z" fill="#FFC737"/>
</svg>
