<svg width="108" height="107" viewBox="0 0 108 107" fill="none" xmlns="http://www.w3.org/2000/svg">
<path d="M89.0688 57.6495C88.234 64.015 85.6822 70.0332 81.687 75.0587C77.6918 80.0842 72.404 83.9273 66.3907 86.176C60.3773 88.4247 53.8653 88.994 47.553 87.8229C41.2406 86.6519 35.3662 83.7846 30.5595 79.5286C25.7529 75.2726 22.1955 69.7885 20.2688 63.6644C18.3421 57.5403 18.1188 51.0072 19.6229 44.7659C21.1269 38.5245 24.3016 32.8103 28.8064 28.2361C33.3112 23.6619 38.9762 20.4002 45.1939 18.8009C62.43 14.3802 80.2717 23.2524 86.8584 39.7856M89.3652 17.6828V39.786H67.262" stroke="white" stroke-width="8.84129" stroke-linecap="round" stroke-linejoin="round"/>
<path d="M45.269 41.4019V64.6844C45.269 64.9433 45.338 65.1976 45.469 65.4209C45.5999 65.6443 45.7881 65.8286 46.0141 65.955C46.2401 66.0813 46.4957 66.1451 46.7546 66.1397C47.0135 66.1343 47.2662 66.0599 47.4867 65.9242L66.4038 54.2829C66.6157 54.1527 66.7906 53.9704 66.912 53.7534C67.0334 53.5363 67.0971 53.2918 67.0971 53.0431C67.0971 52.7945 67.0334 52.5499 66.912 52.3329C66.7906 52.1158 66.6157 51.9335 66.4038 51.8033L47.4867 40.1621C47.2662 40.0264 47.0135 39.952 46.7546 39.9466C46.4957 39.9412 46.2401 40.005 46.0141 40.1313C45.7881 40.2576 45.5999 40.442 45.469 40.6653C45.338 40.8887 45.269 41.1429 45.269 41.4019Z" fill="white"/>
</svg>
