<svg width="24" height="24" viewBox="0 0 24 24" fill="none" xmlns="http://www.w3.org/2000/svg">
    <path fill-rule="evenodd" clip-rule="evenodd" d="M9.53226 3.19914C9.93016 3.03707 10.3729 3.02267 10.7805 3.15853C11.1881 3.29439 11.5336 3.57156 11.7547 3.93995C11.9584 4.27942 12.044 4.67571 12 5.06729V18.9327C12.044 19.3242 11.9584 19.7205 11.7547 20.06C11.5336 20.4284 11.1881 20.7056 10.7805 20.8414C10.3729 20.9773 9.93016 20.9629 9.53226 20.8008C9.16889 20.6528 8.86481 20.3905 8.66499 20.0552L5.51092 16H4C3.46957 16 2.96086 15.7893 2.58579 15.4142C2.21071 15.0391 2 14.5304 2 14V9.99997C2 9.46954 2.21071 8.96083 2.58579 8.58576C2.96086 8.21069 3.46957 7.99997 4 7.99997H5.51092L8.665 3.94473C8.86481 3.6094 9.16889 3.34715 9.53226 3.19914ZM16.9222 4.37146C17.2693 3.94191 17.8989 3.87509 18.3285 4.22222C19.4885 5.15961 20.4241 6.34458 21.0668 7.69036C21.7095 9.03613 22.0431 10.5086 22.0431 12C22.0431 13.4914 21.7095 14.9639 21.0668 16.3096C20.4241 17.6554 19.4885 18.8404 18.3285 19.7778C17.8989 20.1249 17.2693 20.0581 16.9222 19.6285C16.575 19.199 16.6419 18.5694 17.0714 18.2222C17.9994 17.4723 18.7479 16.5243 19.262 15.4477C19.7762 14.3711 20.0431 13.1931 20.0431 12C20.0431 10.8069 19.7762 9.6289 19.262 8.55229C18.7479 7.47567 17.9994 6.52769 17.0714 5.77778C16.6419 5.43065 16.575 4.80102 16.9222 4.37146ZM14.2 7.4C14.5314 6.95817 15.1582 6.86863 15.6 7.2C16.3452 7.75888 16.95 8.48359 17.3666 9.31672C17.7831 10.1499 18 11.0685 18 12C18 12.9315 17.7831 13.8501 17.3666 14.6833C16.95 15.5164 16.3452 16.2411 15.6 16.8C15.1582 17.1314 14.5314 17.0418 14.2 16.6C13.8686 16.1582 13.9582 15.5314 14.4 15.2C14.8968 14.8274 15.3 14.3443 15.5777 13.7889C15.8554 13.2334 16 12.621 16 12C16 11.379 15.8554 10.7666 15.5777 10.2111C15.3 9.65572 14.8968 9.17259 14.4 8.8C13.9582 8.46863 13.8686 7.84183 14.2 7.4Z" fill="white"/>
</svg>
